<svg id="visual" viewBox="0 0 960 300" width="960" height="300" xmlns="http://www.w3.org/2000/svg" xmlns:xlink="http://www.w3.org/1999/xlink" version="1.1"><g><g transform="translate(22 207)"><path d="M65.9 -36.1C79.6 -14.2 81 16.7 68 42.8C55 69 27.5 90.3 -1.3 91.1C-30.1 91.9 -60.2 72 -73.2 45.9C-86.2 19.8 -82 -12.6 -67 -35.2C-52 -57.9 -26 -70.7 0 -70.7C26.1 -70.8 52.1 -58 65.9 -36.1Z" fill="#C8A1E0"></path></g><g transform="translate(845 40)"><path d="M57.5 -33.9C64.2 -21.7 52 0.7 39.3 19.5C26.6 38.3 13.3 53.6 -6.6 57.4C-26.4 61.2 -52.9 53.5 -63.2 36C-73.6 18.6 -67.8 -8.6 -54.6 -24.6C-41.4 -40.6 -20.7 -45.3 2.4 -46.7C25.4 -48.1 50.9 -46.1 57.5 -33.9Z" fill="#C8A1E0"></path></g><g transform="translate(308 191)"><path d="M61.7 -33.8C74 -14.4 73.8 14.1 61.5 34C49.1 54 24.6 65.4 1.3 64.6C-22.1 63.9 -44.1 51.1 -52.5 33.4C-61 15.7 -55.8 -6.7 -44.7 -25.4C-33.7 -44.1 -16.9 -59.1 3.9 -61.4C24.7 -63.6 49.4 -53.2 61.7 -33.8Z" fill="#C8A1E0"></path></g></g></svg>