<svg id="visual" viewBox="0 0 960 300" width="960" height="300" xmlns="http://www.w3.org/2000/svg" xmlns:xlink="http://www.w3.org/1999/xlink" version="1.1"><rect x="0" y="0" width="960" height="300" fill="#C8A1E0"></rect><path d="M0 196L22.8 194.3C45.7 192.7 91.3 189.3 137 190.5C182.7 191.7 228.3 197.3 274 198.2C319.7 199 365.3 195 411.2 196.3C457 197.7 503 204.3 548.8 201.5C594.7 198.7 640.3 186.3 686 185.7C731.7 185 777.3 196 823 203.8C868.7 211.7 914.3 216.3 937.2 218.7L960 221L960 301L937.2 301C914.3 301 868.7 301 823 301C777.3 301 731.7 301 686 301C640.3 301 594.7 301 548.8 301C503 301 457 301 411.2 301C365.3 301 319.7 301 274 301C228.3 301 182.7 301 137 301C91.3 301 45.7 301 22.8 301L0 301Z" fill="#674188"></path><path d="M0 197L22.8 197.3C45.7 197.7 91.3 198.3 137 201.2C182.7 204 228.3 209 274 213C319.7 217 365.3 220 411.2 224.2C457 228.3 503 233.7 548.8 229.8C594.7 226 640.3 213 686 210.7C731.7 208.3 777.3 216.7 823 218.2C868.7 219.7 914.3 214.3 937.2 211.7L960 209L960 301L937.2 301C914.3 301 868.7 301 823 301C777.3 301 731.7 301 686 301C640.3 301 594.7 301 548.8 301C503 301 457 301 411.2 301C365.3 301 319.7 301 274 301C228.3 301 182.7 301 137 301C91.3 301 45.7 301 22.8 301L0 301Z" fill="#493f77"></path><path d="M0 230L22.8 229.8C45.7 229.7 91.3 229.3 137 228C182.7 226.7 228.3 224.3 274 228.5C319.7 232.7 365.3 243.3 411.2 244.7C457 246 503 238 548.8 238.2C594.7 238.3 640.3 246.7 686 247.5C731.7 248.3 777.3 241.7 823 241.5C868.7 241.3 914.3 247.7 937.2 250.8L960 254L960 301L937.2 301C914.3 301 868.7 301 823 301C777.3 301 731.7 301 686 301C640.3 301 594.7 301 548.8 301C503 301 457 301 411.2 301C365.3 301 319.7 301 274 301C228.3 301 182.7 301 137 301C91.3 301 45.7 301 22.8 301L0 301Z" fill="#323961"></path><path d="M0 247L22.8 247.8C45.7 248.7 91.3 250.3 137 249.2C182.7 248 228.3 244 274 244.2C319.7 244.3 365.3 248.7 411.2 251.7C457 254.7 503 256.3 548.8 259C594.7 261.7 640.3 265.3 686 264.2C731.7 263 777.3 257 823 252.3C868.7 247.7 914.3 244.3 937.2 242.7L960 241L960 301L937.2 301C914.3 301 868.7 301 823 301C777.3 301 731.7 301 686 301C640.3 301 594.7 301 548.8 301C503 301 457 301 411.2 301C365.3 301 319.7 301 274 301C228.3 301 182.7 301 137 301C91.3 301 45.7 301 22.8 301L0 301Z" fill="#253149"></path><path d="M0 274L22.8 272.3C45.7 270.7 91.3 267.3 137 267C182.7 266.7 228.3 269.3 274 273C319.7 276.7 365.3 281.3 411.2 283.5C457 285.7 503 285.3 548.8 283.3C594.7 281.3 640.3 277.7 686 276.3C731.7 275 777.3 276 823 277.2C868.7 278.3 914.3 279.7 937.2 280.3L960 281L960 301L937.2 301C914.3 301 868.7 301 823 301C777.3 301 731.7 301 686 301C640.3 301 594.7 301 548.8 301C503 301 457 301 411.2 301C365.3 301 319.7 301 274 301C228.3 301 182.7 301 137 301C91.3 301 45.7 301 22.8 301L0 301Z" fill="#202731"></path></svg>