<svg id="visual" viewBox="0 0 960 300" width="960" height="300" xmlns="http://www.w3.org/2000/svg" xmlns:xlink="http://www.w3.org/1999/xlink" version="1.1"><rect x="0" y="0" width="960" height="300" fill="#202731"></rect><path d="M0 102L22.8 103.7C45.7 105.3 91.3 108.7 137 107.5C182.7 106.3 228.3 100.7 274 99.8C319.7 99 365.3 103 411.2 101.7C457 100.3 503 93.7 548.8 96.5C594.7 99.3 640.3 111.7 686 112.3C731.7 113 777.3 102 823 94.2C868.7 86.3 914.3 81.7 937.2 79.3L960 77L960 0L937.2 0C914.3 0 868.7 0 823 0C777.3 0 731.7 0 686 0C640.3 0 594.7 0 548.8 0C503 0 457 0 411.2 0C365.3 0 319.7 0 274 0C228.3 0 182.7 0 137 0C91.3 0 45.7 0 22.8 0L0 0Z" fill="#674188"></path><path d="M0 101L22.8 100.7C45.7 100.3 91.3 99.7 137 96.8C182.7 94 228.3 89 274 85C319.7 81 365.3 78 411.2 73.8C457 69.7 503 64.3 548.8 68.2C594.7 72 640.3 85 686 87.3C731.7 89.7 777.3 81.3 823 79.8C868.7 78.3 914.3 83.7 937.2 86.3L960 89L960 0L937.2 0C914.3 0 868.7 0 823 0C777.3 0 731.7 0 686 0C640.3 0 594.7 0 548.8 0C503 0 457 0 411.2 0C365.3 0 319.7 0 274 0C228.3 0 182.7 0 137 0C91.3 0 45.7 0 22.8 0L0 0Z" fill="#a76087"></path><path d="M0 68L22.8 68.2C45.7 68.3 91.3 68.7 137 70C182.7 71.3 228.3 73.7 274 69.5C319.7 65.3 365.3 54.7 411.2 53.3C457 52 503 60 548.8 59.8C594.7 59.7 640.3 51.3 686 50.5C731.7 49.7 777.3 56.3 823 56.5C868.7 56.7 914.3 50.3 937.2 47.2L960 44L960 0L937.2 0C914.3 0 868.7 0 823 0C777.3 0 731.7 0 686 0C640.3 0 594.7 0 548.8 0C503 0 457 0 411.2 0C365.3 0 319.7 0 274 0C228.3 0 182.7 0 137 0C91.3 0 45.7 0 22.8 0L0 0Z" fill="#cc8d91"></path><path d="M0 51L22.8 50.2C45.7 49.3 91.3 47.7 137 48.8C182.7 50 228.3 54 274 53.8C319.7 53.7 365.3 49.3 411.2 46.3C457 43.3 503 41.7 548.8 39C594.7 36.3 640.3 32.7 686 33.8C731.7 35 777.3 41 823 45.7C868.7 50.3 914.3 53.7 937.2 55.3L960 57L960 0L937.2 0C914.3 0 868.7 0 823 0C777.3 0 731.7 0 686 0C640.3 0 594.7 0 548.8 0C503 0 457 0 411.2 0C365.3 0 319.7 0 274 0C228.3 0 182.7 0 137 0C91.3 0 45.7 0 22.8 0L0 0Z" fill="#e2bfb0"></path><path d="M0 24L22.8 25.7C45.7 27.3 91.3 30.7 137 31C182.7 31.3 228.3 28.7 274 25C319.7 21.3 365.3 16.7 411.2 14.5C457 12.3 503 12.7 548.8 14.7C594.7 16.7 640.3 20.3 686 21.7C731.7 23 777.3 22 823 20.8C868.7 19.7 914.3 18.3 937.2 17.7L960 17L960 0L937.2 0C914.3 0 868.7 0 823 0C777.3 0 731.7 0 686 0C640.3 0 594.7 0 548.8 0C503 0 457 0 411.2 0C365.3 0 319.7 0 274 0C228.3 0 182.7 0 137 0C91.3 0 45.7 0 22.8 0L0 0Z" fill="#f7efe5"></path></svg>